<svg width="50" height="50" viewBox="0 0 50 50" fill="none" xmlns="http://www.w3.org/2000/svg">
<path d="M21.0005 13C21.2127 13 21.4162 13.0843 21.5662 13.2343C21.7162 13.3843 21.8005 13.5878 21.8005 13.7999V14.5999H25.0007C25.6373 14.5999 26.2478 14.8527 26.6979 15.3028C27.148 15.7528 27.4009 16.3632 27.4009 16.9997V17.9324C27.211 17.9996 27.0312 18.0935 26.8616 18.214C26.4776 18.486 26.1896 18.87 26.0136 19.3515L25.4535 21.0666C25.3594 21.3499 25.2006 21.6074 24.9895 21.8186C24.7815 22.0281 24.5239 22.2041 24.2679 22.2841L22.5222 22.8441C22.207 22.9554 21.92 23.1344 21.6814 23.3685C21.4429 23.6026 21.2585 23.8862 21.1413 24.1992H17.0002C16.3637 24.1992 15.7532 23.9463 15.3031 23.4963C14.853 23.0462 14.6001 22.4358 14.6001 21.7994V16.9997C14.6001 16.3632 14.853 15.7528 15.3031 15.3028C15.7532 14.8527 16.3637 14.5999 17.0002 14.5999H20.2004V13.7999C20.2004 13.5878 20.2847 13.3843 20.4348 13.2343C20.5848 13.0843 20.7883 13 21.0005 13ZM22.5526 27.1558C22.2155 27.0435 21.91 26.8526 21.6613 26.599H15.4001C14.7636 26.599 14.1531 26.8518 13.703 27.3019C13.2529 27.7519 13 28.3623 13 28.9988V29.5588C13 31.6466 13.9601 33.1585 15.4865 34.1072C16.9666 35.0272 18.9364 35.3983 21.0005 35.3983C23.0758 35.3983 25.0455 35.0288 26.524 34.1072C26.8611 33.8993 27.1672 33.663 27.4425 33.3985C27.361 32.9675 27.4158 32.5218 27.5993 32.1234C27.3433 32.0594 27.1032 31.9474 26.8792 31.7874C26.4988 31.5088 26.2088 31.1243 26.0456 30.6819L25.4695 28.9348C25.3255 28.5669 25.1815 28.3589 25.0055 28.1829C24.7906 27.9754 24.5336 27.8166 24.2519 27.7173L22.5526 27.1558ZM18.6003 20.5994C18.9186 20.5994 19.2239 20.473 19.4489 20.248C19.674 20.023 19.8004 19.7178 19.8004 19.3995C19.8004 19.0813 19.674 18.7761 19.4489 18.5511C19.2239 18.326 18.9186 18.1996 18.6003 18.1996C18.2821 18.1996 17.9768 18.326 17.7518 18.5511C17.5267 18.7761 17.4003 19.0813 17.4003 19.3995C17.4003 19.7178 17.5267 20.023 17.7518 20.248C17.9768 20.473 18.2821 20.5994 18.6003 20.5994ZM24.6007 19.3995C24.6007 19.0813 24.4743 18.7761 24.2492 18.5511C24.0241 18.326 23.7189 18.1996 23.4006 18.1996C23.0823 18.1996 22.7771 18.326 22.552 18.5511C22.327 18.7761 22.2005 19.0813 22.2005 19.3995C22.2005 19.7178 22.327 20.023 22.552 20.248C22.7771 20.473 23.0823 20.5994 23.4006 20.5994C23.7189 20.5994 24.0241 20.473 24.2492 20.248C24.4743 20.023 24.6007 19.7178 24.6007 19.3995ZM28.8057 19.8507L29.3626 21.5642C29.5353 22.0853 29.8275 22.5589 30.2159 22.947C30.6043 23.3351 31.0781 23.6269 31.5995 23.7992L33.3148 24.356L33.3484 24.3656C33.4806 24.4121 33.5951 24.4985 33.676 24.6128C33.757 24.7272 33.8005 24.8638 33.8005 25.0039C33.8005 25.144 33.757 25.2807 33.676 25.395C33.5951 25.5094 33.4806 25.5957 33.3484 25.6423L31.6347 26.199C31.113 26.3711 30.6389 26.6629 30.2502 27.051C29.8615 27.4391 29.569 27.9127 29.3962 28.4341L28.8393 30.1459C28.7928 30.2781 28.7064 30.3926 28.5921 30.4735C28.4777 30.5545 28.341 30.598 28.2009 30.598C28.0608 30.598 27.9241 30.5545 27.8098 30.4735C27.6954 30.3926 27.609 30.2781 27.5625 30.1459L27.0056 28.4341C26.8055 27.8279 26.4444 27.2876 25.9608 26.871C25.6111 26.5674 25.2049 26.3358 24.7655 26.1894L23.0502 25.6327C22.918 25.5861 22.8036 25.4998 22.7226 25.3854C22.6416 25.2711 22.5981 25.1344 22.5981 24.9943C22.5981 24.8542 22.6416 24.7176 22.7226 24.6032C22.8036 24.4889 22.918 24.4025 23.0502 24.356L24.7655 23.7992C25.2807 23.6225 25.7478 23.3286 26.1301 22.9408C26.5124 22.553 26.7995 22.0817 26.9688 21.5642L27.5257 19.8523C27.5719 19.7196 27.6582 19.6045 27.7728 19.5231C27.8873 19.4417 28.0244 19.398 28.1649 19.398C28.3054 19.398 28.4425 19.4417 28.557 19.5231C28.6716 19.6045 28.758 19.7196 28.8041 19.8523M36.6526 32.541L35.4285 32.1442C35.0562 32.0204 34.7178 31.8118 34.4401 31.5346C34.1623 31.2575 33.9529 30.9195 33.8284 30.5475L33.4316 29.3236C33.3985 29.2291 33.3368 29.1472 33.2551 29.0893C33.1734 29.0314 33.0757 29.0003 32.9756 29.0003C32.8754 29.0003 32.7778 29.0314 32.6961 29.0893C32.6144 29.1472 32.5527 29.2291 32.5196 29.3236L32.1195 30.5475C31.9978 30.9166 31.7925 31.2527 31.5197 31.5297C31.2469 31.8066 30.9139 32.0169 30.5466 32.1442L29.3226 32.541C29.2521 32.566 29.1884 32.6071 29.1365 32.6609C29.0846 32.7146 29.0458 32.7797 29.0231 32.851C29.0005 32.9222 28.9947 32.9978 29.0061 33.0717C29.0175 33.1455 29.0459 33.2158 29.089 33.2769C29.1466 33.3569 29.2282 33.4209 29.3226 33.4529L30.5466 33.8513C30.9197 33.9756 31.2585 34.1853 31.5363 34.4636C31.8141 34.7419 32.0231 35.0811 32.1467 35.4543L32.5436 36.6767C32.5767 36.7712 32.6384 36.853 32.7201 36.911C32.8018 36.9689 32.8994 37 32.9996 37C33.0997 37 33.1974 36.9689 33.2791 36.911C33.3608 36.853 33.4225 36.7712 33.4556 36.6767L33.854 35.4543C33.9782 35.0822 34.1872 34.744 34.4647 34.4666C34.7421 34.1892 35.0803 33.9802 35.4525 33.8561L36.6766 33.4593C36.7711 33.4262 36.853 33.3645 36.9109 33.2828C36.9689 33.2011 37 33.1035 37 33.0033C37 32.9032 36.9689 32.8055 36.9109 32.7238C36.853 32.6422 36.7711 32.5805 36.6766 32.5474L36.6526 32.541Z" fill="white"/>
</svg>
