<svg width="25" height="25" viewBox="0 0 25 25" fill="none" xmlns="http://www.w3.org/2000/svg">
<path d="M23 18.2349C23 17.3448 22.7361 16.4748 22.2416 15.7348C21.7471 14.9948 21.0443 14.418 20.2221 14.0774C19.3998 13.7368 18.495 13.6477 17.6221 13.8213C16.7492 13.995 15.9474 14.4235 15.318 15.0529C14.6887 15.6822 14.2601 16.484 14.0865 17.357C13.9128 18.2299 14.0019 19.1347 14.3425 19.9569C14.6831 20.7792 15.2599 21.482 15.9999 21.9765C16.74 22.4709 17.61 22.7349 18.5 22.7349C19.693 22.7335 20.8368 22.2589 21.6804 21.4153C22.5241 20.5717 22.9986 19.4279 23 18.2349ZM21.5 18.2349C21.4973 18.7687 21.3503 19.2919 21.0748 19.7491L16.9858 15.6601C17.443 15.3845 17.9662 15.2376 18.5 15.2349C19.2953 15.2359 20.0578 15.5522 20.6202 16.1146C21.1826 16.677 21.499 17.4395 21.5 18.2349ZM15.5 18.2349C15.5027 17.701 15.6497 17.1778 15.9252 16.7206L20.0142 20.8096C19.557 21.0852 19.0338 21.2321 18.5 21.2349C17.7047 21.2339 16.9422 20.9175 16.3798 20.3551C15.8174 19.7927 15.501 19.0302 15.5 18.2349ZM6.5 12.2349H14V13.7349H6.5V12.2349ZM6.5 7.73486H15.5V9.23486H6.5V7.73486Z" fill="white"/>
<path d="M11 21.0346L7.07451 18.9421C5.99412 18.3671 5.09063 17.5088 4.46092 16.4593C3.83121 15.4098 3.49903 14.2088 3.50001 12.9849V3.23486H18.5V11.4849H20V3.23486C20 2.83704 19.842 2.45551 19.5607 2.1742C19.2794 1.8929 18.8978 1.73486 18.5 1.73486H3.50001C3.10218 1.73486 2.72065 1.8929 2.43935 2.1742C2.15804 2.45551 2.00001 2.83704 2.00001 3.23486V12.9849C1.99825 14.4806 2.40393 15.9487 3.17348 17.2313C3.94303 18.5139 5.0474 19.5627 6.36801 20.2651L11 22.7349V21.0346Z" fill="white"/>
</svg>
