<svg width="80" height="81" viewBox="0 0 80 81" fill="none" xmlns="http://www.w3.org/2000/svg">
<g clip-path="url(#clip0_19_59)">
<mask id="mask0_19_59" style="mask-type:luminance" maskUnits="userSpaceOnUse" x="0" y="0" width="80" height="81">
<path d="M80 0.5H0V80.5H80V0.5Z" fill="white"/>
</mask>
<g mask="url(#mask0_19_59)">
<path d="M40 49.6667C38.6333 49.6667 37.5 48.5333 37.5 47.1667V30.5C37.5 29.1333 38.6333 28 40 28C41.3667 28 42.5 29.1333 42.5 30.5V47.1667C42.5 48.5333 41.3667 49.6667 40 49.6667Z" fill="#2847FB"/>
<path d="M40.0001 60.5017C39.8001 60.5017 39.5667 60.4684 39.3334 60.435C39.1334 60.4017 38.9334 60.335 38.7334 60.235C38.5334 60.1684 38.3334 60.0684 38.1334 59.935C37.9667 59.8017 37.8001 59.6684 37.6334 59.535C37.0334 58.9017 36.6667 58.035 36.6667 57.1684C36.6667 56.3017 37.0334 55.435 37.6334 54.8017C37.8001 54.6684 37.9667 54.535 38.1334 54.4017C38.3334 54.2684 38.5334 54.1684 38.7334 54.1017C38.9334 54.0017 39.1334 53.935 39.3334 53.9017C39.7667 53.8017 40.2334 53.8017 40.6334 53.9017C40.8667 53.935 41.0667 54.0017 41.2667 54.1017C41.4667 54.1684 41.6667 54.2684 41.8667 54.4017C42.0334 54.535 42.2001 54.6684 42.3667 54.8017C42.9667 55.435 43.3334 56.3017 43.3334 57.1684C43.3334 58.035 42.9667 58.9017 42.3667 59.535C42.2001 59.6684 42.0334 59.8017 41.8667 59.935C41.6667 60.0684 41.4667 60.1684 41.2667 60.235C41.0667 60.335 40.8667 60.4017 40.6334 60.435C40.4334 60.4684 40.2001 60.5017 40.0001 60.5017Z" fill="#2847FB"/>
<path d="M60.2 74.366H19.7999C13.2999 74.366 8.33326 71.9994 5.79993 67.7327C3.29991 63.466 3.63326 57.966 6.79992 52.266L26.9999 15.9328C30.3333 9.93281 34.9333 6.63281 40 6.63281C45.0667 6.63281 49.6667 9.93281 53 15.9328L73.2 52.2993C76.3667 57.9993 76.7333 63.466 74.2 67.766C71.6667 71.9994 66.7 74.366 60.2 74.366ZM40 11.6328C36.8667 11.6328 33.8 14.0328 31.3666 18.3661L11.1999 54.7327C8.93326 58.7994 8.56659 62.5327 10.1333 65.2327C11.6999 67.9327 15.1666 69.3993 19.8333 69.3993H60.2333C64.9 69.3993 68.3333 67.9327 69.9333 65.2327C71.5333 62.5327 71.1333 58.8327 68.8667 54.7327L48.6333 18.3661C46.2 14.0328 43.1333 11.6328 40 11.6328Z" fill="#2847FB"/>
</g>
</g>
<defs>
<clipPath id="clip0_19_59">
<rect width="80" height="80" fill="white" transform="translate(0 0.5)"/>
</clipPath>
</defs>
</svg>
