<svg width="12" height="16" viewBox="0 0 12 16" fill="none" xmlns="http://www.w3.org/2000/svg">
<path d="M1.51268 15.5C1.12879 15.5 0.808515 15.3717 0.551849 15.115C0.295182 14.8583 0.166571 14.5381 0.166016 14.1542V1.84583C0.166016 1.4625 0.294627 1.1425 0.551849 0.885833C0.809071 0.629167 1.12935 0.500556 1.51268 0.5H7.52352C7.70296 0.5 7.8774 0.536111 8.04685 0.608333C8.21629 0.680556 8.36129 0.7775 8.48185 0.899167L11.4327 3.85C11.5532 3.97111 11.6499 4.11611 11.7227 4.285C11.7955 4.45389 11.8318 4.62833 11.8318 4.80833V14.1533C11.8318 14.5367 11.7032 14.8569 11.446 15.1142C11.1888 15.3714 10.8691 15.5 10.4868 15.5H1.51268ZM7.66602 3.99333V1.33333H1.51268C1.38435 1.33333 1.26657 1.38667 1.15935 1.49333C1.05213 1.6 0.998793 1.7175 0.999349 1.84583V14.1542C0.999349 14.2819 1.05268 14.3994 1.15935 14.5067C1.26602 14.6139 1.38352 14.6672 1.51185 14.6667H10.4868C10.6146 14.6667 10.7321 14.6133 10.8393 14.5067C10.9466 14.4 10.9999 14.2822 10.9993 14.1533V4.66667H8.33935C8.14546 4.66667 7.9849 4.60278 7.85768 4.475C7.73046 4.34722 7.66657 4.18667 7.66602 3.99333Z" fill="black"/>
</svg>
