<svg width="20" height="20" viewBox="0 0 20 20" fill="none" xmlns="http://www.w3.org/2000/svg">
<path d="M5.51268 17.5C5.12879 17.5 4.80852 17.3717 4.55185 17.115C4.29518 16.8583 4.16657 16.5381 4.16602 16.1542V3.84583C4.16602 3.4625 4.29463 3.1425 4.55185 2.88583C4.80907 2.62917 5.12935 2.50056 5.51268 2.5H11.5235C11.703 2.5 11.8774 2.53611 12.0468 2.60833C12.2163 2.68056 12.3613 2.7775 12.4818 2.89917L15.4327 5.85C15.5532 5.97111 15.6499 6.11611 15.7227 6.285C15.7955 6.45389 15.8318 6.62833 15.8318 6.80833V16.1533C15.8318 16.5367 15.7032 16.8569 15.446 17.1142C15.1888 17.3714 14.8691 17.5 14.4868 17.5H5.51268ZM11.666 5.99333V3.33333H5.51268C5.38435 3.33333 5.26657 3.38667 5.15935 3.49333C5.05213 3.6 4.99879 3.7175 4.99935 3.84583V16.1542C4.99935 16.2819 5.05268 16.3994 5.15935 16.5067C5.26602 16.6139 5.38352 16.6672 5.51185 16.6667H14.4868C14.6146 16.6667 14.7321 16.6133 14.8393 16.5067C14.9466 16.4 14.9999 16.2822 14.9993 16.1533V6.66667H12.3393C12.1455 6.66667 11.9849 6.60278 11.8577 6.475C11.7305 6.34722 11.6666 6.18667 11.666 5.99333Z" fill="#3872F9"/>
</svg>
