<svg width="17" height="17" viewBox="0 0 17 17" fill="none" xmlns="http://www.w3.org/2000/svg">
<path d="M15.081 1.10352H1.91977C1.46896 1.10352 1.10352 1.46896 1.10352 1.91977V15.081C1.10352 15.5318 1.46896 15.8973 1.91977 15.8973H15.081C15.5318 15.8973 15.8973 15.5318 15.8973 15.081V1.91977C15.8973 1.46896 15.5318 1.10352 15.081 1.10352Z" fill="#3D5A98"/>
<path d="M11.3101 15.8968V10.1681H13.2326L13.5201 7.9356H11.3101V6.5106C11.3101 5.86435 11.4901 5.4231 12.4164 5.4231H13.5989V3.4231C13.0263 3.36353 12.4508 3.33515 11.8751 3.3381C10.1726 3.3381 9.00014 4.3756 9.00014 6.28935V7.9356H7.07764V10.1681H9.00014V15.8968H11.3101Z" fill="white"/>
</svg>
