<svg width="15" height="15" viewBox="0 0 15 15" fill="none" xmlns="http://www.w3.org/2000/svg">
<path d="M11.2188 0.5H3.78125C1.96907 0.5 0.5 1.96907 0.5 3.78125V11.2188C0.5 13.0309 1.96907 14.5 3.78125 14.5H11.2188C13.0309 14.5 14.5 13.0309 14.5 11.2188V3.78125C14.5 1.96907 13.0309 0.5 11.2188 0.5Z" fill="url(#paint0_radial_485_11562)"/>
<path d="M11.2188 0.5H3.78125C1.96907 0.5 0.5 1.96907 0.5 3.78125V11.2188C0.5 13.0309 1.96907 14.5 3.78125 14.5H11.2188C13.0309 14.5 14.5 13.0309 14.5 11.2188V3.78125C14.5 1.96907 13.0309 0.5 11.2188 0.5Z" fill="url(#paint1_radial_485_11562)"/>
<path d="M7.50049 2.03125C6.01529 2.03125 5.82886 2.03776 5.24556 2.06428C4.66336 2.09097 4.26595 2.18312 3.91824 2.31836C3.55851 2.45803 3.25341 2.6449 2.94945 2.94896C2.64523 3.25297 2.45836 3.55807 2.31825 3.91764C2.18263 4.26545 2.09037 4.66303 2.06417 5.24496C2.03809 5.82831 2.03125 6.0148 2.03125 7.50006C2.03125 8.98531 2.03781 9.17114 2.06428 9.75444C2.09108 10.3366 2.18323 10.7341 2.31836 11.0818C2.45814 11.4415 2.64501 11.7466 2.94907 12.0505C3.25297 12.3548 3.55807 12.5421 3.91753 12.6818C4.26551 12.817 4.66298 12.9091 5.24507 12.9358C5.82842 12.9624 6.01469 12.9689 7.49984 12.9689C8.9852 12.9689 9.17103 12.9624 9.75433 12.9358C10.3365 12.9091 10.7344 12.817 11.0824 12.6818C11.4419 12.5421 11.7466 12.3548 12.0504 12.0505C12.3547 11.7466 12.5415 11.4415 12.6816 11.0819C12.8161 10.7341 12.9084 10.3365 12.9357 9.75455C12.9619 9.17125 12.9688 8.98531 12.9688 7.50006C12.9688 6.0148 12.9619 5.82842 12.9357 5.24507C12.9084 4.66287 12.8161 4.26551 12.6816 3.9178C12.5415 3.55807 12.3547 3.25297 12.0504 2.94896C11.7463 2.64479 11.442 2.45792 11.082 2.31841C10.7334 2.18312 10.3358 2.09091 9.75356 2.06428C9.17021 2.03776 8.98449 2.03125 7.4988 2.03125H7.50049ZM7.00989 3.01677C7.15552 3.01655 7.318 3.01677 7.50049 3.01677C8.9607 3.01677 9.13373 3.02202 9.71036 3.04822C10.2436 3.07261 10.533 3.1617 10.7257 3.23656C10.981 3.33566 11.1629 3.45416 11.3542 3.64562C11.5456 3.83703 11.6641 4.0193 11.7634 4.27453C11.8383 4.46703 11.9275 4.75644 11.9518 5.28964C11.978 5.86616 11.9837 6.0393 11.9837 7.4988C11.9837 8.9583 11.978 9.13149 11.9518 9.70795C11.9274 10.2412 11.8383 10.5306 11.7634 10.7231C11.6643 10.9783 11.5456 11.1601 11.3542 11.3514C11.1628 11.5428 10.9811 11.6612 10.7257 11.7604C10.5332 11.8356 10.2436 11.9244 9.71036 11.9488C9.13384 11.975 8.9607 11.9807 7.50049 11.9807C6.04023 11.9807 5.86714 11.975 5.29068 11.9488C4.75748 11.9242 4.46807 11.8351 4.27513 11.7603C4.01996 11.6611 3.83763 11.5427 3.64623 11.3513C3.45482 11.1599 3.33637 10.978 3.237 10.7227C3.16213 10.5301 3.07294 10.2407 3.04866 9.70752C3.02246 9.131 3.01721 8.95786 3.01721 7.49743C3.01721 6.037 3.02246 5.86479 3.04866 5.28827C3.07305 4.75507 3.16213 4.46566 3.237 4.27289C3.33615 4.01766 3.45482 3.83539 3.64628 3.64398C3.83774 3.45258 4.01996 3.33407 4.27519 3.23476C4.46796 3.15956 4.75748 3.0707 5.29068 3.0462C5.79517 3.02339 5.99068 3.01655 7.00989 3.01541V3.01677ZM10.4197 3.9248C10.0574 3.9248 9.76346 4.21848 9.76346 4.58084C9.76346 4.94314 10.0574 5.23709 10.4197 5.23709C10.782 5.23709 11.076 4.94314 11.076 4.58084C11.076 4.21853 10.782 3.92459 10.4197 3.92459V3.9248ZM7.50049 4.69158C5.94955 4.69158 4.69207 5.94906 4.69207 7.50006C4.69207 9.05105 5.94955 10.3079 7.50049 10.3079C9.05148 10.3079 10.3085 9.05105 10.3085 7.50006C10.3085 5.94912 9.05138 4.69158 7.50038 4.69158H7.50049ZM7.50049 5.6771C8.50723 5.6771 9.32345 6.4932 9.32345 7.50006C9.32345 8.5068 8.50723 9.32301 7.50049 9.32301C6.49375 9.32301 5.67759 8.5068 5.67759 7.50006C5.67759 6.4932 6.4937 5.6771 7.50049 5.6771Z" fill="white"/>
<defs>
<radialGradient id="paint0_radial_485_11562" cx="0" cy="0" r="1" gradientUnits="userSpaceOnUse" gradientTransform="translate(4.21875 15.5783) rotate(-90) scale(13.875 12.9049)">
<stop stop-color="#FFDD55"/>
<stop offset="0.1" stop-color="#FFDD55"/>
<stop offset="0.5" stop-color="#FF543E"/>
<stop offset="1" stop-color="#C837AB"/>
</radialGradient>
<radialGradient id="paint1_radial_485_11562" cx="0" cy="0" r="1" gradientUnits="userSpaceOnUse" gradientTransform="translate(-1.84505 1.50849) rotate(78.681) scale(6.20222 25.5657)">
<stop stop-color="#3771C8"/>
<stop offset="0.128" stop-color="#3771C8"/>
<stop offset="1" stop-color="#6600FF" stop-opacity="0"/>
</radialGradient>
</defs>
</svg>
