<svg width="17" height="17" viewBox="0 0 17 17" fill="none" xmlns="http://www.w3.org/2000/svg">
<g clip-path="url(#clip0_488_12558)">
<path d="M14.1328 14.133H11.7621V10.4203C11.7621 9.53498 11.7463 8.39529 10.5291 8.39529C9.29431 8.39529 9.10538 9.35991 9.10538 10.3559V14.1327H6.73475V6.49798H9.01056V7.54135H9.04244C9.27021 7.15193 9.59933 6.83157 9.99476 6.61439C10.3902 6.39721 10.8371 6.29133 11.2879 6.30804C13.6908 6.30804 14.1338 7.88854 14.1338 9.94466L14.1328 14.133ZM4.05975 5.45441C3.29994 5.45454 2.68387 4.83866 2.68375 4.07885C2.68362 3.31904 3.29944 2.70298 4.05925 2.70285C4.81906 2.70266 5.43512 3.31854 5.43525 4.07835C5.43532 4.44323 5.29044 4.79319 5.03248 5.05125C4.77453 5.30931 4.42463 5.45433 4.05975 5.45441ZM5.24512 14.133H2.87194V6.49798H5.24506L5.24512 14.133ZM15.3146 0.501164H1.68069C1.03631 0.493914 0.507875 1.0101 0.5 1.65448V15.3453C0.507625 15.99 1.036 16.5067 1.68062 16.4999H15.3146C15.9606 16.5079 16.4911 15.9912 16.5 15.3453V1.65341C16.4908 1.00779 15.9603 0.491664 15.3146 0.500102" fill="#0A66C2"/>
</g>
<defs>
<clipPath id="clip0_488_12558">
<rect width="16" height="16" fill="white" transform="translate(0.5 0.5)"/>
</clipPath>
</defs>
</svg>
