<svg width="20" height="20" viewBox="0 0 20 20" fill="none" xmlns="http://www.w3.org/2000/svg">
<path d="M14.8187 16.1358L14.1092 15.4252C14.0153 15.332 13.9044 15.2854 13.7766 15.2854C13.648 15.2854 13.5372 15.332 13.444 15.4252C13.3508 15.5176 13.3042 15.627 13.3042 15.7534C13.3042 15.8798 13.3508 15.9896 13.444 16.0828L14.3757 17.0144C14.51 17.1495 14.6613 17.217 14.8296 17.217C14.9979 17.217 15.1492 17.1495 15.2835 17.0144L17.5563 14.7752C17.6495 14.682 17.6997 14.5748 17.7069 14.4534C17.7141 14.3314 17.6639 14.2169 17.5563 14.11C17.4632 14.0168 17.3491 13.9703 17.214 13.9703C17.0789 13.9703 16.9645 14.0172 16.8706 14.1111L14.8187 16.1358ZM3.876 5.45742H14.1265C14.2803 5.45742 14.4089 5.40578 14.5122 5.3025C14.6154 5.19922 14.6674 5.07031 14.6682 4.91575C14.6682 4.74747 14.6162 4.61531 14.5122 4.51925C14.4089 4.42247 14.2803 4.37409 14.1265 4.37409H3.87491C3.72108 4.37409 3.59216 4.42572 3.48816 4.529C3.38416 4.63228 3.33252 4.7612 3.33325 4.91575C3.33397 5.07031 3.38561 5.19922 3.48816 5.3025C3.59072 5.40578 3.72072 5.45742 3.876 5.45742ZM15.5002 19.9589C14.2933 19.9589 13.2696 19.5382 12.4289 18.6968C11.5875 17.8562 11.1668 16.8324 11.1668 15.6256C11.1668 14.4188 11.5875 13.3946 12.4289 12.5533C13.2703 11.7119 14.2941 11.2915 15.5002 11.2923C16.7063 11.293 17.7304 11.7133 18.5725 12.5533C19.4146 13.3932 19.8349 14.4173 19.8335 15.6256C19.8335 16.8317 19.4132 17.8554 18.5725 18.6968C17.7304 19.5382 16.7063 19.9589 15.5002 19.9589ZM0.333496 2.08392C0.333496 1.59859 0.503941 1.18547 0.84483 0.844585C1.18572 0.503697 1.59883 0.333252 2.08416 0.333252H15.9172C16.4011 0.333252 16.8139 0.503697 17.1555 0.844585C17.4964 1.18547 17.6668 1.59859 17.6668 2.08392V7.844C17.6668 7.99784 17.6152 8.12675 17.5119 8.23075C17.4086 8.33475 17.2797 8.38639 17.1252 8.38567C16.9706 8.38495 16.8417 8.33331 16.7384 8.23075C16.6351 8.1282 16.5835 7.99928 16.5835 7.844V2.08392C16.5835 1.91709 16.5142 1.76397 16.3755 1.62459C16.2368 1.4852 16.0837 1.41586 15.9162 1.41659H2.08416C1.91733 1.41659 1.76422 1.48592 1.62483 1.62459C1.48544 1.76325 1.41611 1.91636 1.41683 2.08392V16.6374H8.2895C8.31189 16.7833 8.33825 16.9292 8.36858 17.0751C8.39964 17.221 8.43936 17.3647 8.48775 17.5063C8.53614 17.6355 8.50364 17.7413 8.39025 17.8237C8.27614 17.9067 8.1678 17.9103 8.06525 17.8345L7.7955 17.6503C7.71533 17.5976 7.63083 17.5713 7.542 17.5713C7.45316 17.5713 7.3683 17.5976 7.28741 17.6503L6.33733 18.3079C6.25716 18.3614 6.17266 18.3881 6.08383 18.3881C5.995 18.3881 5.91014 18.3614 5.82925 18.3079L4.87916 17.6503C4.79827 17.5976 4.71341 17.5713 4.62458 17.5713C4.53575 17.5713 4.45125 17.5976 4.37108 17.6503L3.421 18.3079C3.34083 18.3614 3.25633 18.3881 3.1675 18.3881C3.07866 18.3881 2.9938 18.3614 2.91291 18.3079L1.96283 17.6503C1.88194 17.5976 1.79708 17.5713 1.70825 17.5713C1.61941 17.5713 1.53491 17.5976 1.45475 17.6503L0.333496 18.5203V2.08392ZM3.876 13.6247H8.07283C8.22739 13.6247 8.3563 13.573 8.45958 13.4698C8.56286 13.3665 8.6145 13.2376 8.6145 13.083C8.6145 12.9284 8.56286 12.7999 8.45958 12.6973C8.3563 12.5948 8.22739 12.5428 8.07283 12.5413H3.876C3.72216 12.5413 3.59325 12.5933 3.48925 12.6973C3.38525 12.8013 3.33361 12.9299 3.33433 13.083C3.33505 13.2361 3.38669 13.365 3.48925 13.4698C3.5918 13.5745 3.72072 13.6261 3.876 13.6247ZM3.876 9.54159H11.6803C11.8342 9.54159 11.9631 9.48995 12.0671 9.38667C12.1711 9.28339 12.2227 9.15447 12.222 8.99992C12.2213 8.84536 12.1696 8.71645 12.0671 8.61317C11.9645 8.50989 11.8356 8.45825 11.6803 8.45825H3.87491C3.72108 8.45825 3.59216 8.50989 3.48816 8.61317C3.38416 8.71645 3.33289 8.84536 3.33433 8.99992C3.33577 9.15447 3.38741 9.28339 3.48925 9.38667C3.59108 9.48995 3.72 9.54159 3.876 9.54159Z" fill="white"/>
</svg>
