     <svg
                    stroke="currentColor"
                    fill="currentColor"
                    strokeWidth="0"
                    viewBox="0 0 256 256"
                    className="h-7 w-7 text-gray-500"
                    height="1em"
                    width="1em"
                    xmlns="http://www.w3.org/2000/svg"
                  >
                    <path d="M208,40H48A24,24,0,0,0,24,64V176a24,24,0,0,0,24,24h72v16H96a8,8,0,0,0,0,16h64a8,8,0,0,0,0-16H136V200h72a24,24,0,0,0,24-24V64A24,24,0,0,0,208,40ZM48,56H208a8,8,0,0,1,8,8v80H40V64A8,8,0,0,1,48,56ZM208,184H48a8,8,0,0,1-8-8V160H216v16A8,8,0,0,1,208,184Z"></path>
                  </svg>