<svg width="16" height="17" viewBox="0 0 16 17" fill="none" xmlns="http://www.w3.org/2000/svg">
<g clip-path="url(#clip0_288_5214)">
<path d="M7.25 7.75C7.25 7.94891 7.32902 8.13968 7.46967 8.28033C7.61032 8.42098 7.80109 8.5 8 8.5C8.19891 8.5 8.38968 8.42098 8.53033 8.28033C8.67098 8.13968 8.75 7.94891 8.75 7.75V4.25C8.75 4.05109 8.67098 3.86032 8.53033 3.71967C8.38968 3.57902 8.19891 3.5 8 3.5C7.80109 3.5 7.61032 3.57902 7.46967 3.71967C7.32902 3.86032 7.25 4.05109 7.25 4.25V7.75ZM8 10.5C7.73478 10.5 7.48043 10.6054 7.29289 10.7929C7.10536 10.9804 7 11.2348 7 11.5C7 11.7652 7.10536 12.0196 7.29289 12.2071C7.48043 12.3946 7.73478 12.5 8 12.5C8.26522 12.5 8.51957 12.3946 8.70711 12.2071C8.89464 12.0196 9 11.7652 9 11.5C9 11.2348 8.89464 10.9804 8.70711 10.7929C8.51957 10.6054 8.26522 10.5 8 10.5Z" fill="black"/>
<path fill-rule="evenodd" clip-rule="evenodd" d="M5.91909 0.5C5.62309 0.5 5.32409 0.5 5.03209 0.57C4.77695 0.630792 4.53297 0.731356 4.30909 0.868C4.05309 1.025 3.84209 1.236 3.63309 1.446L0.943094 4.136C0.733094 4.346 0.522094 4.556 0.365094 4.812C0.2281 5.03581 0.127198 5.2798 0.0660938 5.535C-0.00390625 5.827 -0.00390625 6.125 -0.00390625 6.422V10.572C-0.00390625 10.868 -0.00390625 11.167 0.0660938 11.459C0.127094 11.714 0.228094 11.959 0.365094 12.182C0.522094 12.438 0.733094 12.648 0.943094 12.858L3.63309 15.548C3.84209 15.758 4.05309 15.969 4.30909 16.126C4.53309 16.263 4.77709 16.364 5.03209 16.426C5.32409 16.496 5.62209 16.495 5.91909 16.494H10.0691C10.3651 16.494 10.6641 16.495 10.9561 16.425C11.2113 16.3639 11.4553 16.263 11.6791 16.126C11.9351 15.969 12.1451 15.758 12.3551 15.548L15.0451 12.858C15.2551 12.649 15.4661 12.438 15.6231 12.182C15.7601 11.958 15.8611 11.714 15.9221 11.459C15.9921 11.167 15.9921 10.869 15.9921 10.572V6.422C15.9921 6.126 15.9921 5.827 15.9221 5.535C15.861 5.2798 15.7601 5.03581 15.6231 4.812C15.4661 4.556 15.2551 4.345 15.0451 4.136L12.3551 1.446C12.1461 1.236 11.9351 1.026 11.6791 0.868C11.4553 0.731006 11.2113 0.630104 10.9561 0.569C10.6641 0.5 10.3661 0.5 10.0691 0.5H5.91909ZM4.28909 2.2C4.54809 1.941 4.67809 1.811 4.83009 1.718C4.96441 1.63557 5.11087 1.57483 5.26409 1.538C5.43709 1.497 5.62009 1.497 5.98709 1.497H9.99709C10.3641 1.497 10.5471 1.497 10.7201 1.538C10.8734 1.57467 11.0181 1.63467 11.1541 1.718C11.3051 1.811 11.4351 1.94 11.6941 2.2L14.2841 4.79C14.5431 5.05 14.6731 5.18 14.7661 5.331C14.8488 5.46633 14.9088 5.611 14.9461 5.765C14.9871 5.938 14.9871 6.121 14.9871 6.488V10.498C14.9871 10.865 14.9871 11.048 14.9461 11.221C14.9093 11.3742 14.8485 11.5207 14.7661 11.655C14.6731 11.806 14.5441 11.936 14.2841 12.195L11.6941 14.785C11.4351 15.045 11.3051 15.175 11.1541 15.267C11.0198 15.3494 10.8733 15.4102 10.7201 15.447C10.5471 15.488 10.3641 15.488 9.99709 15.488H5.98709C5.62009 15.488 5.43709 15.488 5.26409 15.448C5.11087 15.4112 4.96441 15.3504 4.83009 15.268C4.67909 15.174 4.54909 15.045 4.28909 14.785L1.69909 12.195C1.44009 11.936 1.31009 11.806 1.21709 11.655C1.13467 11.5207 1.07392 11.3742 1.03709 11.221C0.996094 11.048 0.996094 10.865 0.996094 10.498V6.488C0.996094 6.121 0.996094 5.938 1.03709 5.765C1.07376 5.61167 1.13376 5.467 1.21709 5.331C1.31009 5.181 1.43909 5.051 1.69909 4.791L4.28909 2.2Z" fill="black"/>
</g>
<defs>
<clipPath id="clip0_288_5214">
<rect width="16" height="16" fill="white" transform="translate(0 0.5)"/>
</clipPath>
</defs>
</svg>
