<svg width="16" height="16" viewBox="0 0 16 16" fill="none" xmlns="http://www.w3.org/2000/svg">
<g clip-path="url(#clip0_463_6462)">
<path d="M7.25 7.25C7.25 7.44891 7.32902 7.63968 7.46967 7.78033C7.61032 7.92098 7.80109 8 8 8C8.19891 8 8.38968 7.92098 8.53033 7.78033C8.67098 7.63968 8.75 7.44891 8.75 7.25V3.75C8.75 3.55109 8.67098 3.36032 8.53033 3.21967C8.38968 3.07902 8.19891 3 8 3C7.80109 3 7.61032 3.07902 7.46967 3.21967C7.32902 3.36032 7.25 3.55109 7.25 3.75V7.25ZM8 10C7.73478 10 7.48043 10.1054 7.29289 10.2929C7.10536 10.4804 7 10.7348 7 11C7 11.2652 7.10536 11.5196 7.29289 11.7071C7.48043 11.8946 7.73478 12 8 12C8.26522 12 8.51957 11.8946 8.70711 11.7071C8.89464 11.5196 9 11.2652 9 11C9 10.7348 8.89464 10.4804 8.70711 10.2929C8.51957 10.1054 8.26522 10 8 10Z" fill="#3872F9"/>
<path fill-rule="evenodd" clip-rule="evenodd" d="M5.91909 0C5.62309 0 5.32409 0 5.03209 0.07C4.77695 0.130792 4.53297 0.231356 4.30909 0.368C4.05309 0.525 3.84209 0.736 3.63309 0.946L0.943094 3.636C0.733094 3.846 0.522094 4.056 0.365094 4.312C0.2281 4.53581 0.127198 4.7798 0.0660938 5.035C-0.00390625 5.327 -0.00390625 5.625 -0.00390625 5.922V10.072C-0.00390625 10.368 -0.00390625 10.667 0.0660938 10.959C0.127094 11.214 0.228094 11.459 0.365094 11.682C0.522094 11.938 0.733094 12.148 0.943094 12.358L3.63309 15.048C3.84209 15.258 4.05309 15.469 4.30909 15.626C4.53309 15.763 4.77709 15.864 5.03209 15.926C5.32409 15.996 5.62209 15.995 5.91909 15.994H10.0691C10.3651 15.994 10.6641 15.995 10.9561 15.925C11.2113 15.8639 11.4553 15.763 11.6791 15.626C11.9351 15.469 12.1451 15.258 12.3551 15.048L15.0451 12.358C15.2551 12.149 15.4661 11.938 15.6231 11.682C15.7601 11.458 15.8611 11.214 15.9221 10.959C15.9921 10.667 15.9921 10.369 15.9921 10.072V5.922C15.9921 5.626 15.9921 5.327 15.9221 5.035C15.861 4.7798 15.7601 4.53581 15.6231 4.312C15.4661 4.056 15.2551 3.845 15.0451 3.636L12.3551 0.946C12.1461 0.736 11.9351 0.526 11.6791 0.368C11.4553 0.231006 11.2113 0.130104 10.9561 0.069C10.6641 0 10.3661 0 10.0691 0H5.91909ZM4.28909 1.7C4.54809 1.441 4.67809 1.311 4.83009 1.218C4.96441 1.13557 5.11087 1.07483 5.26409 1.038C5.43709 0.997 5.62009 0.997 5.98709 0.997H9.99709C10.3641 0.997 10.5471 0.997 10.7201 1.038C10.8734 1.07467 11.0181 1.13467 11.1541 1.218C11.3051 1.311 11.4351 1.44 11.6941 1.7L14.2841 4.29C14.5431 4.55 14.6731 4.68 14.7661 4.831C14.8488 4.96633 14.9088 5.111 14.9461 5.265C14.9871 5.438 14.9871 5.621 14.9871 5.988V9.998C14.9871 10.365 14.9871 10.548 14.9461 10.721C14.9093 10.8742 14.8485 11.0207 14.7661 11.155C14.6731 11.306 14.5441 11.436 14.2841 11.695L11.6941 14.285C11.4351 14.545 11.3051 14.675 11.1541 14.767C11.0198 14.8494 10.8733 14.9102 10.7201 14.947C10.5471 14.988 10.3641 14.988 9.99709 14.988H5.98709C5.62009 14.988 5.43709 14.988 5.26409 14.948C5.11087 14.9112 4.96441 14.8504 4.83009 14.768C4.67909 14.674 4.54909 14.545 4.28909 14.285L1.69909 11.695C1.44009 11.436 1.31009 11.306 1.21709 11.155C1.13467 11.0207 1.07392 10.8742 1.03709 10.721C0.996094 10.548 0.996094 10.365 0.996094 9.998V5.988C0.996094 5.621 0.996094 5.438 1.03709 5.265C1.07376 5.11167 1.13376 4.967 1.21709 4.831C1.31009 4.681 1.43909 4.551 1.69909 4.291L4.28909 1.7Z" fill="#3872F9"/>
</g>
<defs>
<clipPath id="clip0_463_6462">
<rect width="16" height="16" fill="white"/>
</clipPath>
</defs>
</svg>
