<svg width="80" height="80" viewBox="0 0 80 80" fill="none" xmlns="http://www.w3.org/2000/svg">
<g clip-path="url(#clip0_81_1934)">
<path d="M74.8914 4.51435L20.3657 49.9544M33.2114 62.8572L45.6571 75.2572C46.4214 76.0406 47.377 76.6108 48.4294 76.9115C49.4817 77.2121 50.5943 77.2328 51.6571 76.9715C52.7255 76.722 53.7118 76.2021 54.5214 75.4616C55.3309 74.7211 55.9365 73.7849 56.28 72.7429L76.7143 11.4858C77.1449 10.3379 77.2361 9.0903 76.9771 7.89195C76.718 6.69361 76.1196 5.59512 75.2533 4.72758C74.387 3.86005 73.2893 3.26012 72.0913 2.9994C70.8933 2.73868 69.6456 2.82817 68.4971 3.25721L7.23997 23.6972C6.16214 24.0651 5.20202 24.714 4.45869 25.5769C3.71535 26.4398 3.21574 27.4854 3.0114 28.6058C2.80146 29.6257 2.84819 30.6819 3.14742 31.6793C3.44664 32.6767 3.98897 33.5841 4.72569 34.3201L20.3657 49.9601L19.8514 69.7658L33.2114 62.8572Z" stroke="#3872F9" stroke-width="4" stroke-linecap="round" stroke-linejoin="round"/>
</g>
<defs>
<clipPath id="clip0_81_1934">
<rect width="80" height="80" fill="white"/>
</clipPath>
</defs>
</svg>
