<svg width="23" height="22" viewBox="0 0 23 22" fill="none" xmlns="http://www.w3.org/2000/svg">
<path d="M11.5 21.2349C17.023 21.2349 21.5 16.7579 21.5 11.2349C21.5 5.71186 17.023 1.23486 11.5 1.23486C5.977 1.23486 1.5 5.71186 1.5 11.2349C1.5 16.7579 5.977 21.2349 11.5 21.2349Z" stroke="white" stroke-width="1.5"/>
<path d="M11.5078 9.74286C11.11 9.74286 10.7285 9.9009 10.4472 10.1822C10.1658 10.4635 10.0078 10.845 10.0078 11.2429C10.0078 11.6407 10.1658 12.0222 10.4472 12.3035C10.7285 12.5848 11.11 12.7429 11.5078 12.7429C11.9056 12.7429 12.2872 12.5848 12.5685 12.3035C12.8498 12.0222 13.0078 11.6407 13.0078 11.2429C13.0078 10.845 12.8498 10.4635 12.5685 10.1822C12.2872 9.9009 11.9056 9.74286 11.5078 9.74286ZM11.5078 9.74286V6.23486M14.5148 14.2549L12.5658 12.3069" stroke="white" stroke-width="1.5" stroke-linecap="round" stroke-linejoin="round"/>
</svg>
