<svg width="14" height="14" viewBox="0 0 14 14" fill="none" xmlns="http://www.w3.org/2000/svg">
<path d="M1.63451 2.19922L0.716915 1.28242C0.679724 1.24523 0.650223 1.20108 0.630096 1.15249C0.609969 1.10389 0.599609 1.05181 0.599609 0.999219C0.599609 0.946624 0.609969 0.894544 0.630096 0.845952C0.650223 0.79736 0.679724 0.753209 0.716915 0.716019C0.754105 0.678828 0.798256 0.649327 0.846848 0.6292C0.895439 0.609073 0.94752 0.598713 1.00011 0.598713C1.05271 0.598713 1.10479 0.609073 1.15338 0.6292C1.20197 0.649327 1.24612 0.678828 1.28331 0.716019L13.2833 12.716C13.3584 12.7911 13.4006 12.893 13.4006 12.9992C13.4006 13.1054 13.3584 13.2073 13.2833 13.2824C13.2082 13.3575 13.1063 13.3997 13.0001 13.3997C12.8939 13.3997 12.792 13.3575 12.7169 13.2824L11.1185 11.6824C10.9713 12.1783 10.6677 12.6134 10.2531 12.9227C9.83849 13.2321 9.33502 13.3992 8.81771 13.3992H5.18252C4.59368 13.3992 4.0254 13.1827 3.58582 12.7909C3.14624 12.3991 2.86603 11.8594 2.79851 11.2744L1.84331 2.99922H1.00011C0.894028 2.99922 0.792287 2.95708 0.717272 2.88206C0.642257 2.80705 0.600115 2.70531 0.600115 2.59922C0.600115 2.49313 0.642257 2.39139 0.717272 2.31638C0.792287 2.24136 0.894028 2.19922 1.00011 2.19922H1.63451ZM10.4289 10.9936L8.60011 9.16482V10.1992C8.60011 10.3053 8.55797 10.407 8.48296 10.4821C8.40794 10.5571 8.3062 10.5992 8.20011 10.5992C8.09403 10.5992 7.99229 10.5571 7.91727 10.4821C7.84226 10.407 7.80011 10.3053 7.80011 10.1992V8.36482L6.20011 6.76482V10.1992C6.20011 10.3053 6.15797 10.407 6.08296 10.4821C6.00794 10.5571 5.9062 10.5992 5.80011 10.5992C5.69403 10.5992 5.59229 10.5571 5.51727 10.4821C5.44226 10.407 5.40011 10.3053 5.40011 10.1992V5.96482L2.67691 3.24162L3.59291 11.1824C3.63787 11.5725 3.82469 11.9324 4.11781 12.1936C4.41092 12.4549 4.78987 12.5992 5.18252 12.5992H8.81771C9.21024 12.5993 9.58908 12.455 9.88218 12.1939C10.1753 11.9329 10.3622 11.5731 10.4073 11.1832L10.4289 10.9936ZM7.80011 6.10322L8.60011 6.90322V5.39922C8.60011 5.29313 8.55797 5.19139 8.48296 5.11638C8.40794 5.04136 8.3062 4.99922 8.20011 4.99922C8.09403 4.99922 7.99229 5.04136 7.91727 5.11638C7.84226 5.19139 7.80011 5.29313 7.80011 5.39922V6.10322ZM11.3513 2.99922L10.6633 8.96482L11.3849 9.68722L12.1569 2.99922H13.0001C13.1062 2.99922 13.2079 2.95708 13.283 2.88206C13.358 2.80705 13.4001 2.70531 13.4001 2.59922C13.4001 2.49313 13.358 2.39139 13.283 2.31638C13.2079 2.24136 13.1062 2.19922 13.0001 2.19922H9.00011C9.00011 1.66879 8.7894 1.16008 8.41433 0.785005C8.03926 0.409932 7.53055 0.199219 7.00011 0.199219C6.46968 0.199219 5.96097 0.409932 5.5859 0.785005C5.21083 1.16008 5.00011 1.66879 5.00011 2.19922H3.89691L4.69691 2.99922H11.3513ZM8.20011 2.19922H5.80011C5.80011 1.88096 5.92654 1.57573 6.15159 1.35069C6.37663 1.12565 6.68185 0.999219 7.00011 0.999219C7.31837 0.999219 7.6236 1.12565 7.84864 1.35069C8.07369 1.57573 8.20011 1.88096 8.20011 2.19922Z" fill="#E20404" fill-opacity="0.7"/>
</svg>
