<svg width="20" height="15" viewBox="0 0 20 15" fill="none" xmlns="http://www.w3.org/2000/svg">
<path d="M13.9997 10.8349C13.8406 10.8349 13.688 10.8981 13.5754 11.0106C13.4629 11.1232 13.3997 11.2758 13.3997 11.4349C13.3997 11.594 13.4629 11.7467 13.5754 11.8592C13.688 11.9717 13.8406 12.0349 13.9997 12.0349H16.3997C16.5588 12.0349 16.7115 11.9717 16.824 11.8592C16.9365 11.7467 16.9997 11.594 16.9997 11.4349C16.9997 11.2758 16.9365 11.1232 16.824 11.0106C16.7115 10.8981 16.5588 10.8349 16.3997 10.8349H13.9997ZM0.199707 3.33491C0.199707 2.4597 0.547385 1.62033 1.16625 1.00146C1.78512 0.382589 2.62449 0.0349121 3.49971 0.0349121H16.0997C16.9749 0.0349121 17.8143 0.382589 18.4332 1.00146C19.052 1.62033 19.3997 2.4597 19.3997 3.33491V11.1349C19.3997 12.0101 19.052 12.8495 18.4332 13.4684C17.8143 14.0872 16.9749 14.4349 16.0997 14.4349H3.49971C2.62449 14.4349 1.78512 14.0872 1.16625 13.4684C0.547385 12.8495 0.199707 12.0101 0.199707 11.1349V3.33491ZM3.49971 1.23491C2.94275 1.23491 2.40861 1.45616 2.01478 1.84999C1.62096 2.24381 1.39971 2.77796 1.39971 3.33491V4.83491H18.1997V3.33491C18.1997 2.77796 17.9785 2.24381 17.5846 1.84999C17.1908 1.45616 16.6567 1.23491 16.0997 1.23491H3.49971ZM18.1997 6.03491H1.39971V11.1349C1.39971 12.2941 2.34051 13.2349 3.49971 13.2349H16.0997C16.6567 13.2349 17.1908 13.0137 17.5846 12.6198C17.9785 12.226 18.1997 11.6919 18.1997 11.1349V6.03491Z" fill="white"/>
</svg>
